<?xml version="1.0" encoding="UTF-8"?>
<svg xmlns="http://www.w3.org/2000/svg" id="Icons" viewBox="0 0 74 74" width="512" height="512"><path d="M56.686,18.528a1,1,0,0,1-.812-1.583,4.966,4.966,0,0,0,.928-2.916,5.09,5.09,0,0,0-9.927-1.577,1,1,0,0,1-1.9-.623,7.09,7.09,0,0,1,13.828,2.2,6.954,6.954,0,0,1-1.3,4.082A1,1,0,0,1,56.686,18.528Z"/><path d="M64.482,30.089a1,1,0,0,1-.924-1.382A7.057,7.057,0,0,0,64.078,26a7.468,7.468,0,1,0-14.935,0,1,1,0,0,1-2,0,9.468,9.468,0,1,1,18.935,0,9.058,9.058,0,0,1-.671,3.475A1,1,0,0,1,64.482,30.089Z"/><path d="M59.361,45.288c-.325,0-.647-.017-.964-.048a1,1,0,1,1,.2-1.99q.375.037.761.038a7.46,7.46,0,0,0,4.521-13.4,1,1,0,1,1,1.2-1.6,9.466,9.466,0,0,1-5.722,17Z"/><path d="M55.684,66.255a1,1,0,0,1-.161-1.987,7.42,7.42,0,0,0,6.235-7.354,7.6,7.6,0,0,0-.314-2.163,1,1,0,1,1,1.918-.567,9.616,9.616,0,0,1,.4,2.73,9.413,9.413,0,0,1-7.911,9.328A1.13,1.13,0,0,1,55.684,66.255Z"/><path d="M62.4,55.468a1,1,0,0,1-.411-1.912,7.451,7.451,0,0,0,4.38-6.784,7.354,7.354,0,0,0-1.586-4.591,1,1,0,0,1,1.571-1.237,9.44,9.44,0,0,1-3.544,14.435A1,1,0,0,1,62.4,55.468Z"/><path d="M46.781,72A10.793,10.793,0,0,1,36,61.219V8.337a6.354,6.354,0,0,1,1.887-4.843,5.919,5.919,0,0,1,5.252-1.361A32.053,32.053,0,0,1,55.324,7.94,1,1,0,0,1,54.069,9.5,30.513,30.513,0,0,0,42.74,4.093a3.92,3.92,0,0,0-3.483.858A4.443,4.443,0,0,0,38,8.337V61.219a8.783,8.783,0,0,0,16.781,3.626,1,1,0,0,1,1.822.827A10.811,10.811,0,0,1,46.781,72Z"/><path d="M17.314,18.528a1,1,0,0,1-.813-.417,6.954,6.954,0,0,1-1.3-4.082,7.09,7.09,0,0,1,13.828-2.2,1,1,0,1,1-1.9.623A5.09,5.09,0,0,0,17.2,14.029a4.966,4.966,0,0,0,.928,2.916,1,1,0,0,1-.812,1.583Z"/><path d="M9.518,30.089a1,1,0,0,1-.925-.618A9.058,9.058,0,0,1,7.922,26a9.468,9.468,0,1,1,18.935,0,1,1,0,0,1-2,0A7.468,7.468,0,1,0,9.922,26a7.057,7.057,0,0,0,.52,2.711A1,1,0,0,1,9.9,30.013,1.012,1.012,0,0,1,9.518,30.089Z"/><path d="M14.639,45.288a9.459,9.459,0,0,1-5.722-17,1,1,0,1,1,1.2,1.6,7.466,7.466,0,0,0,4.521,13.4q.386,0,.761-.038a1,1,0,1,1,.2,1.99C15.286,45.271,14.964,45.288,14.639,45.288Z"/><path d="M18.316,66.255a1.13,1.13,0,0,1-.163-.013,9.413,9.413,0,0,1-7.911-9.328,9.616,9.616,0,0,1,.4-2.73,1,1,0,1,1,1.918.567,7.6,7.6,0,0,0-.314,2.163,7.42,7.42,0,0,0,6.235,7.354,1,1,0,0,1-.161,1.987Z"/><path d="M11.6,55.468a1,1,0,0,1-.41-.089A9.44,9.44,0,0,1,7.642,40.944a1,1,0,1,1,1.571,1.237,7.354,7.354,0,0,0-1.586,4.591,7.451,7.451,0,0,0,4.38,6.784,1,1,0,0,1-.411,1.912Z"/><path d="M27.219,72A10.811,10.811,0,0,1,17.4,65.672a1,1,0,0,1,1.822-.827A8.783,8.783,0,0,0,36,61.219V8.337a4.443,4.443,0,0,0-1.257-3.386,3.917,3.917,0,0,0-3.482-.858,30.431,30.431,0,0,0-11.33,5.4A1,1,0,0,1,18.676,7.94,32.052,32.052,0,0,1,30.862,2.133a5.918,5.918,0,0,1,5.251,1.361A6.354,6.354,0,0,1,38,8.337V61.219A10.793,10.793,0,0,1,27.219,72Z"/><path d="M37,22.965a.979.979,0,0,1-.271-.038,1,1,0,0,1-.691-1.234c.526-1.868,2.532-5.3,6.319-4.922a1,1,0,0,1-.2,1.99c-3.084-.3-4.185,3.437-4.2,3.475A1,1,0,0,1,37,22.965Z"/><path d="M37,27.929a1,1,0,0,1-.961-.726h0c-.045-.155-1.145-3.793-4.2-3.478a1,1,0,0,1-.2-1.991c3.8-.377,5.793,3.055,6.319,4.923a1,1,0,0,1-.691,1.234A.979.979,0,0,1,37,27.929Z"/><path d="M50.7,34.69a9.418,9.418,0,0,1-7.253-3.4,1,1,0,1,1,1.536-1.28,7.438,7.438,0,0,0,13.155-4.759c0-.191-.007-.381-.021-.569a1,1,0,1,1,1.994-.151q.027.357.027.72A9.448,9.448,0,0,1,50.7,34.69Z"/><path d="M56.611,40.5h-.02c-4.866-.095-7.152-4.373-7.681-6.622a1,1,0,0,1,1.946-.461h0c.05.2,1.257,4.995,5.774,5.083a1,1,0,0,1-.019,2Z"/><path d="M50.514,53.92l-.083,0a1,1,0,0,1-.914-1.079,7.76,7.76,0,0,0-1.616-5.9,9.637,9.637,0,0,0-5.953-2.892,1,1,0,1,1,.144-1.995,11.62,11.62,0,0,1,7.329,3.586A9.683,9.683,0,0,1,51.51,53,1,1,0,0,1,50.514,53.92Z"/><path d="M44.133,62.579h-.047a1,1,0,0,1-.953-1.045c.163-3.522,2.46-10.092,9.963-9.827a1,1,0,1,1-.074,2c-7.406-.267-7.875,7.585-7.891,7.92A1,1,0,0,1,44.133,62.579Z"/><path d="M25.739,35.885A9.449,9.449,0,0,1,16.3,26.448c0-.243.009-.484.027-.721a1,1,0,1,1,1.994.151q-.021.282-.021.57a7.438,7.438,0,0,0,13.154,4.758,1,1,0,1,1,1.537,1.28A9.418,9.418,0,0,1,25.739,35.885Z"/><path d="M19.823,41.7a1,1,0,0,1-.019-2c4.516-.088,5.724-4.879,5.774-5.083a1,1,0,0,1,1.946.461C27,37.322,24.708,41.6,19.843,41.7Z"/><path d="M20.03,56.456a1,1,0,0,1-1-.917,9.677,9.677,0,0,1,2.089-7.37,11.615,11.615,0,0,1,7.328-3.586,1.014,1.014,0,0,1,1.07.926,1,1,0,0,1-.925,1.07,9.708,9.708,0,0,0-5.964,2.9,7.773,7.773,0,0,0-1.605,5.893,1,1,0,0,1-.914,1.079Z"/><path d="M26.411,65.114a1,1,0,0,1-1-.952h0c-.017-.335-.5-8.209-7.891-7.922a1,1,0,0,1-.074-2c7.493-.273,9.8,6.305,9.963,9.827a1,1,0,0,1-.953,1.045Z"/><path d="M37,62.219h-.006A1,1,0,0,1,36,61.212a8.315,8.315,0,0,0-6.635-8.423,1,1,0,0,1,.379-1.964c.083.016,8.311,1.7,8.256,10.4A1,1,0,0,1,37,62.219Z"/></svg>
